{
  "accessors": [
    {
      "bufferView": 2,
      "componentType": 5126,
      "count": 8168,
      "max": [
        5.397134780883789,
        10.900854110717773,
        10.415468215942383
      ],
      "min": [
        -5.235773086547852,
        -11.288410186767578,
        0.841060996055603
      ],
      "type": "VEC3"
    },
    {
      "bufferView": 2,
      "byteOffset": 98016,
      "componentType": 5126,
      "count": 8168,
      "max": [
        0.9999834895133972,
        0.9999995231628418,
        0.9999932050704956
      ],
      "min": [
        -0.999965488910675,
        -0.9999992251396179,
        -0.999998927116394
      ],
      "type": "VEC3"
    },
    {
      "bufferView": 1,
      "componentType": 5126,
      "count": 8168,
      "max": [
        0.9955000281333923,
        0.9965000152587891
      ],
      "min": [
        0.003100000089034438,
        0.005499999970197678
      ],
      "type": "VEC2"
    },
    {
      "bufferView": 0,
      "componentType": 5125,
      "count": 20934,
      "type": "SCALAR"
    },
    {
      "bufferView": 2,
      "byteOffset": 196032,
      "componentType": 5126,
      "count": 592,
      "max": [
        -3.8247361183166504,
        10.974053382873535,
        1.8601659536361694
      ],
      "min": [
        -5.261246204376221,
        8.402976036071777,
        0.7298849821090698
      ],
      "type": "VEC3"
    },
    {
      "bufferView": 2,
      "byteOffset": 203136,
      "componentType": 5126,
      "count": 592,
      "max": [
        0.9998118877410889,
        0.9997702240943909,
        0.9852703809738159
      ],
      "min": [
        -0.9999141693115234,
        -0.9998966455459595,
        -0.9937143921852112
      ],
      "type": "VEC3"
    },
    {
      "bufferView": 1,
      "byteOffset": 65344,
      "componentType": 5126,
      "count": 592,
      "max": [
        1.0,
        0.17440000176429749
      ],
      "min": [
        0.0,
        0.06780000030994415
      ],
      "type": "VEC2"
    },
    {
      "bufferView": 0,
      "byteOffset": 83736,
      "componentType": 5125,
      "count": 1716,
      "type": "SCALAR"
    },
    {
      "bufferView": 2,
      "byteOffset": 210240,
      "componentType": 5126,
      "count": 72,
      "max": [
        0.8582379817962646,
        2.9495720863342285,
        6.262576103210449
      ],
      "min": [
        -1.290855050086975,
        -1.777474045753479,
        4.158865928649902
      ],
      "type": "VEC3"
    },
    {
      "bufferView": 2,
      "byteOffset": 211104,
      "componentType": 5126,
      "count": 72,
      "max": [
        0.9998247027397156,
        0.008809397928416729,
        0.9997583627700806
      ],
      "min": [
        -0.9998249411582947,
        -0.008730539120733738,
        -0.9997574687004089
      ],
      "type": "VEC3"
    },
    {
      "bufferView": 1,
      "byteOffset": 70080,
      "componentType": 5126,
      "count": 72,
      "max": [
        0.993399977684021,
        0.9872000217437744
      ],
      "min": [
        0.01850000023841858,
        0.011099999770522118
      ],
      "type": "VEC2"
    },
    {
      "bufferView": 0,
      "byteOffset": 90600,
      "componentType": 5125,
      "count": 216,
      "type": "SCALAR"
    }
  ],
  "asset": {
    "extras": {
      "author": "donnie7102006 (https://sketchfab.com/donnie7102006)",
      "license": "CC-BY-4.0 (http://creativecommons.org/licenses/by/4.0/)",
      "source": "https://sketchfab.com/3d-models/mel-portal-gunwith-download-c2c834f4a8d54e26accb2182714d523c",
      "title": "mel Portal Gun(with download)"
    },
    "generator": "Sketchfab-12.68.0",
    "version": "2.0"
  },
  "bufferViews": [
    {
      "buffer": 0,
      "byteLength": 91464,
      "name": "floatBufferViews",
      "target": 34963
    },
    {
      "buffer": 0,
      "byteLength": 70656,
      "byteOffset": 91464,
      "byteStride": 8,
      "name": "floatBufferViews",
      "target": 34962
    },
    {
      "buffer": 0,
      "byteLength": 211968,
      "byteOffset": 162120,
      "byteStride": 12,
      "name": "floatBufferViews",
      "target": 34962
    }
  ],
  "buffers": [
    {
      "byteLength": 374088,
      "uri": "scene.bin"
    }
  ],
  "images": [
    {
      "uri": "textures/Material__3259_baseColor.png"
    },
    {
      "uri": "textures/Material__3260_baseColor.png"
    }
  ],
  "materials": [
    {
      "alphaMode": "BLEND",
      "doubleSided": true,
      "name": "03___Default",
      "pbrMetallicRoughness": {
        "baseColorFactor": [
          0.0,
          0.5647060000000002,
          1.0,
          0.29
        ],
        "metallicFactor": 0.0
      }
    },
    {
      "doubleSided": true,
      "emissiveTexture": {
        "index": 0
      },
      "name": "Material__3259",
      "pbrMetallicRoughness": {
        "baseColorTexture": {
          "index": 0
        },
        "metallicFactor": 0.0
      }
    },
    {
      "doubleSided": true,
      "emissiveTexture": {
        "index": 1
      },
      "name": "Material__3260",
      "pbrMetallicRoughness": {
        "baseColorTexture": {
          "index": 1
        },
        "metallicFactor": 0.0
      }
    }
  ],
  "meshes": [
    {
      "name": "Object_0",
      "primitives": [
        {
          "attributes": {
            "NORMAL": 1,
            "POSITION": 0,
            "TEXCOORD_0": 2
          },
          "indices": 3,
          "material": 1,
          "mode": 4
        }
      ]
    },
    {
      "name": "Object_1",
      "primitives": [
        {
          "attributes": {
            "NORMAL": 5,
            "POSITION": 4,
            "TEXCOORD_0": 6
          },
          "indices": 7,
          "material": 2,
          "mode": 4
        }
      ]
    },
    {
      "name": "Object_2",
      "primitives": [
        {
          "attributes": {
            "NORMAL": 9,
            "POSITION": 8,
            "TEXCOORD_0": 10
          },
          "indices": 11,
          "material": 0,
          "mode": 4
        }
      ]
    }
  ],
  "nodes": [
    {
      "children": [
        1
      ],
      "matrix": [
        1.0,
        0.0,
        0.0,
        0.0,
        0.0,
        2.220446049250313e-16,
        -1.0,
        0.0,
        0.0,
        1.0,
        2.220446049250313e-16,
        0.0,
        0.0,
        0.0,
        0.0,
        1.0
      ],
      "name": "Sketchfab_model"
    },
    {
      "children": [
        2,
        3,
        4
      ],
      "name": "Portal gun.obj.cleaner.materialmerger.gles"
    },
    {
      "mesh": 0,
      "name": "Object_2"
    },
    {
      "mesh": 1,
      "name": "Object_3"
    },
    {
      "mesh": 2,
      "name": "Object_4"
    }
  ],
  "samplers": [
    {
      "magFilter": 9729,
      "minFilter": 9987,
      "wrapS": 10497,
      "wrapT": 10497
    }
  ],
  "scene": 0,
  "scenes": [
    {
      "name": "Sketchfab_Scene",
      "nodes": [
        0
      ]
    }
  ],
  "textures": [
    {
      "sampler": 0,
      "source": 0
    },
    {
      "sampler": 0,
      "source": 1
    }
  ]
}
